<svg width="49" height="208" viewBox="0 0 49 208" fill="none" xmlns="http://www.w3.org/2000/svg">
<path opacity="0.5" d="M32.258 182.167H33.5412V173.712H32.2463L30.0197 175.294V176.583L32.2287 175.013H32.258V182.167ZM38.6857 182.326C40.7131 182.326 41.9025 180.621 41.9025 177.925C41.9025 175.248 40.7072 173.554 38.6857 173.554C36.6701 173.554 35.4572 175.253 35.4572 177.931C35.4572 180.626 36.6584 182.326 38.6857 182.326ZM38.6857 181.224C37.4787 181.224 36.7873 179.97 36.7873 177.931C36.7873 175.921 37.4904 174.656 38.6857 174.656C39.881 174.656 40.5783 175.916 40.5783 177.931C40.5783 179.976 39.8927 181.224 38.6857 181.224ZM44.3752 178.646H44.3635V173.712H43.0978V182.167H44.3635V179.953L44.8908 179.431L46.9826 182.167H48.4533L45.799 178.658L48.3537 176.003H46.8654L44.3752 178.646Z" fill="#050303"/>
<path opacity="0.5" d="M28.9493 127.286V127.298H30.1915V127.28C30.1915 126.401 30.8888 125.733 31.8145 125.733C32.6934 125.733 33.3731 126.331 33.3731 127.081C33.3731 127.743 33.1036 128.188 32.0723 129.261L29.0196 132.372V133.263H34.8028V132.155H30.7891V132.126L32.9044 129.999C34.1407 128.733 34.668 128.001 34.668 127.017C34.668 125.675 33.4669 124.649 31.8555 124.649C30.1739 124.649 28.9493 125.763 28.9493 127.286ZM39.0509 133.421C41.0782 133.421 42.2677 131.716 42.2677 129.021C42.2677 126.343 41.0723 124.649 39.0509 124.649C37.0352 124.649 35.8223 126.349 35.8223 129.026C35.8223 131.722 37.0235 133.421 39.0509 133.421ZM39.0509 132.319C37.8438 132.319 37.1524 131.065 37.1524 129.026C37.1524 127.017 37.8555 125.751 39.0509 125.751C40.2462 125.751 40.9434 127.011 40.9434 129.026C40.9434 131.071 40.2579 132.319 39.0509 132.319ZM44.7403 129.741H44.7286V124.808H43.463V133.263H44.7286V131.048L45.2559 130.526L47.3477 133.263H48.8184L46.1641 129.753L48.7188 127.099H47.2305L44.7403 129.741Z" fill="#050303"/>
<path opacity="0.5" d="M29.2305 102.833V102.845H30.4727V102.828C30.4727 101.949 31.17 101.281 32.0958 101.281C32.9747 101.281 33.6544 101.878 33.6544 102.628C33.6544 103.291 33.3848 103.736 32.3536 104.808L29.3009 107.919V108.81H35.0841V107.703H31.0704V107.673L33.1856 105.546C34.422 104.281 34.9493 103.548 34.9493 102.564C34.9493 101.222 33.7481 100.197 32.1368 100.197C30.4552 100.197 29.2305 101.31 29.2305 102.833ZM39.2794 108.968C41.1016 108.968 42.379 107.767 42.379 106.033C42.379 104.392 41.213 103.203 39.5899 103.203C38.7638 103.203 38.0723 103.525 37.7032 104.058H37.6739L37.9083 101.462H41.8868V100.355H36.8536L36.4083 105.136H37.6095C37.9376 104.58 38.5704 104.246 39.3028 104.246C40.3575 104.246 41.0958 105.007 41.0958 106.068C41.0958 107.128 40.3575 107.873 39.2911 107.873C38.3477 107.873 37.627 107.298 37.5333 106.46H36.2794C36.3555 107.937 37.5919 108.968 39.2794 108.968ZM44.7403 105.289H44.7286V100.355H43.463V108.81H44.7286V106.595L45.2559 106.074L47.3477 108.81H48.8184L46.1641 105.3L48.7188 102.646H47.2305L44.7403 105.289Z" fill="#050303"/>
<path opacity="0.5" d="M30.543 80.5312H31.5977C32.711 80.5312 33.4024 81.0938 33.4024 82.0078C33.4024 82.834 32.6641 83.4199 31.6329 83.4199C30.5665 83.4199 29.8985 82.8633 29.8165 82.0547H28.5567C28.6388 83.5137 29.8106 84.5156 31.6329 84.5156C33.3966 84.5156 34.7384 83.502 34.7384 82.0254C34.7384 80.8418 33.918 80.0625 32.6466 79.9746V79.9512C33.6954 79.7637 34.3868 79.0078 34.3868 77.9531C34.3868 76.6523 33.2208 75.7441 31.6212 75.7441C29.9454 75.7441 28.8263 76.6992 28.7266 78.1816H29.963C30.0391 77.3496 30.6485 76.8223 31.5626 76.8223C32.5645 76.8223 33.1036 77.3438 33.1036 78.1289C33.1036 78.9258 32.4766 79.5 31.5626 79.5H30.543V80.5312ZM39.0509 84.5156C41.0782 84.5156 42.2677 82.8105 42.2677 80.1152C42.2677 77.4375 41.0723 75.7441 39.0509 75.7441C37.0352 75.7441 35.8223 77.4434 35.8223 80.1211C35.8223 82.8164 37.0235 84.5156 39.0509 84.5156ZM39.0509 83.4141C37.8438 83.4141 37.1524 82.1602 37.1524 80.1211C37.1524 78.1113 37.8555 76.8457 39.0509 76.8457C40.2462 76.8457 40.9434 78.1055 40.9434 80.1211C40.9434 82.166 40.2579 83.4141 39.0509 83.4141ZM44.7403 80.8359H44.7286V75.9023H43.463V84.3574H44.7286V82.1426L45.2559 81.6211L47.3477 84.3574H48.8184L46.1641 80.8477L48.7188 78.1934H47.2305L44.7403 80.8359Z" fill="#050303"/>
<path opacity="0.5" d="M30.8243 56.0789H31.879C32.9923 56.0789 33.6837 56.6414 33.6837 57.5554C33.6837 58.3816 32.9454 58.9675 31.9141 58.9675C30.8477 58.9675 30.1798 58.4109 30.0977 57.6023H28.838C28.92 59.0613 30.0919 60.0632 31.9141 60.0632C33.6778 60.0632 35.0196 59.0496 35.0196 57.573C35.0196 56.3894 34.1993 55.6101 32.9278 55.5222V55.4988C33.9766 55.3113 34.668 54.5554 34.668 53.5007C34.668 52.2 33.502 51.2917 31.9024 51.2917C30.2266 51.2917 29.1075 52.2468 29.0079 53.7292H30.2442C30.3204 52.8972 30.9298 52.3699 31.8438 52.3699C32.8458 52.3699 33.3848 52.8914 33.3848 53.6765C33.3848 54.4734 32.7579 55.0476 31.8438 55.0476H30.8243V56.0789ZM39.2794 60.0632C41.1016 60.0632 42.379 58.8621 42.379 57.1277C42.379 55.4871 41.213 54.2976 39.5899 54.2976C38.7638 54.2976 38.0723 54.6199 37.7032 55.1531H37.6739L37.9083 52.5574H41.8868V51.45H36.8536L36.4083 56.2312H37.6095C37.9376 55.6746 38.5704 55.3406 39.3028 55.3406C40.3575 55.3406 41.0958 56.1023 41.0958 57.1628C41.0958 58.2234 40.3575 58.9675 39.2911 58.9675C38.3477 58.9675 37.627 58.3933 37.5333 57.5554H36.2794C36.3555 59.032 37.5919 60.0632 39.2794 60.0632ZM44.7403 56.3835H44.7286V51.45H43.463V59.905H44.7286V57.6902L45.2559 57.1687L47.3477 59.905H48.8184L46.1641 56.3953L48.7188 53.741H47.2305L44.7403 56.3835Z" fill="#050303"/>
<path opacity="0.5" d="M32.5352 35.4526H33.795V33.7827H34.9552V32.6812H33.795V26.9976H31.8966C29.9923 29.7515 29.0313 31.269 28.3048 32.6343V33.7827H32.5352V35.4526ZM29.5294 32.6694C30.2032 31.4448 31.0587 30.1265 32.5235 28.0112H32.547V32.6987H29.5294V32.6694ZM39.0509 35.6108C41.0782 35.6108 42.2677 33.9058 42.2677 31.2104C42.2677 28.5327 41.0723 26.8394 39.0509 26.8394C37.0352 26.8394 35.8223 28.5386 35.8223 31.2163C35.8223 33.9116 37.0235 35.6108 39.0509 35.6108ZM39.0509 34.5093C37.8438 34.5093 37.1524 33.2554 37.1524 31.2163C37.1524 29.2065 37.8555 27.9409 39.0509 27.9409C40.2462 27.9409 40.9434 29.2007 40.9434 31.2163C40.9434 33.2612 40.2579 34.5093 39.0509 34.5093ZM44.7403 31.9312H44.7286V26.9976H43.463V35.4526H44.7286V33.2378L45.2559 32.7163L47.3477 35.4526H48.8184L46.1641 31.9429L48.7188 29.2886H47.2305L44.7403 31.9312Z" fill="#050303"/>
<path opacity="0.5" d="M32.8165 11H34.0763V9.33008H35.2364V8.22852H34.0763V2.54492H32.1778C30.2735 5.29883 29.3126 6.81641 28.586 8.18164V9.33008H32.8165V11ZM29.8106 8.2168C30.4845 6.99219 31.3399 5.67383 32.8048 3.55859H32.8282V8.24609H29.8106V8.2168ZM39.2794 11.1582C41.1016 11.1582 42.379 9.95703 42.379 8.22266C42.379 6.58203 41.213 5.39258 39.5899 5.39258C38.7638 5.39258 38.0723 5.71484 37.7032 6.24805H37.6739L37.9083 3.65234H41.8868V2.54492H36.8536L36.4083 7.32617H37.6095C37.9376 6.76953 38.5704 6.43555 39.3028 6.43555C40.3575 6.43555 41.0958 7.19727 41.0958 8.25781C41.0958 9.31836 40.3575 10.0625 39.2911 10.0625C38.3477 10.0625 37.627 9.48828 37.5333 8.65039H36.2794C36.3555 10.127 37.5919 11.1582 39.2794 11.1582ZM44.7403 7.47852H44.7286V2.54492H43.463V11H44.7286V8.78516L45.2559 8.26367L47.3477 11H48.8184L46.1641 7.49023L48.7188 4.83594H47.2305L44.7403 7.47852Z" fill="#050303"/>
<path opacity="0.5" d="M37.8492 207.423V206.644C39.566 206.503 40.5563 205.606 40.5563 204.183C40.5563 202.964 39.8473 202.231 38.3942 201.868L37.8492 201.745V199.126C38.6285 199.226 39.1617 199.747 39.1852 200.409H40.4098C40.3746 199.114 39.3785 198.188 37.8492 198.06V197.245H37.0465V198.06C35.4586 198.206 34.4918 199.097 34.4918 200.433C34.4918 201.569 35.2125 202.354 36.525 202.683L37.0465 202.817V205.589C36.1617 205.489 35.5992 204.991 35.5407 204.271H34.2985C34.3043 205.624 35.3766 206.538 37.0465 206.649V207.423H37.8492ZM39.3141 204.3C39.3141 205.073 38.7809 205.554 37.8492 205.606V202.97C38.8571 203.181 39.3141 203.603 39.3141 204.3ZM35.7457 200.345C35.7457 199.671 36.2965 199.167 37.0465 199.126V201.575C36.2028 201.399 35.7457 200.978 35.7457 200.345ZM44.8864 206.778C46.9137 206.778 48.1032 205.073 48.1032 202.378C48.1032 199.7 46.9078 198.007 44.8864 198.007C42.8707 198.007 41.6578 199.706 41.6578 202.384C41.6578 205.079 42.859 206.778 44.8864 206.778ZM44.8864 205.677C43.6793 205.677 42.9879 204.423 42.9879 202.384C42.9879 200.374 43.691 199.108 44.8864 199.108C46.0817 199.108 46.7789 200.368 46.7789 202.384C46.7789 204.429 46.0934 205.677 44.8864 205.677Z" fill="#050303"/>
<path opacity="0.5" d="M32.5686 157.715H33.8518V149.26H32.5569L30.3303 150.842V152.131L32.5393 150.561H32.5686V157.715ZM38.9436 157.873C40.7659 157.873 42.0432 156.672 42.0432 154.938C42.0432 153.297 40.8772 152.107 39.2542 152.107C38.428 152.107 37.7366 152.43 37.3674 152.963H37.3381L37.5725 150.367H41.551V149.26H36.5178L36.0725 154.041H37.2737C37.6018 153.484 38.2346 153.15 38.9671 153.15C40.0217 153.15 40.76 153.912 40.76 154.973C40.76 156.033 40.0217 156.777 38.9553 156.777C38.012 156.777 37.2913 156.203 37.1975 155.365H35.9436C36.0198 156.842 37.2561 157.873 38.9436 157.873ZM44.4046 154.193H44.3928V149.26H43.1272V157.715H44.3928V155.5L44.9202 154.979L47.012 157.715H48.4827L45.8284 154.205L48.3831 151.551H46.8948L44.4046 154.193Z" fill="#050303"/>
</svg>
