<svg width="308" height="314" viewBox="0 0 308 314" fill="none" xmlns="http://www.w3.org/2000/svg">
<rect x="26.6016" y="170.644" width="21.5977" height="143.162" rx="10" fill="url(#paint0_linear_297_104)"/>
<rect x="26.6016" y="223.038" width="21.5977" height="90.7675" rx="10" fill="url(#paint1_linear_297_104)"/>
<rect x="156.188" y="159.574" width="21.5977" height="154.231" rx="10" fill="url(#paint2_linear_297_104)"/>
<rect x="156.188" y="215.658" width="21.5977" height="98.147" rx="10" fill="url(#paint3_linear_297_104)"/>
<rect x="69.7974" y="136.698" width="21.5977" height="177.107" rx="10" fill="url(#paint4_linear_297_104)"/>
<rect x="69.7974" y="201.637" width="21.5977" height="112.168" rx="10" fill="url(#paint5_linear_297_104)"/>
<rect x="199.383" y="118.987" width="21.5977" height="194.818" rx="10" fill="url(#paint6_linear_297_104)"/>
<rect x="199.383" y="190.568" width="21.5977" height="123.237" rx="10" fill="url(#paint7_linear_297_104)"/>
<rect x="112.993" y="201.637" width="21.5977" height="112.168" rx="10" fill="url(#paint8_linear_297_104)"/>
<rect x="112.993" y="242.962" width="21.5977" height="70.8429" rx="10" fill="url(#paint9_linear_297_104)"/>
<rect x="242.579" y="236.321" width="21.5977" height="77.4845" rx="10" fill="url(#paint10_linear_297_104)"/>
<rect x="242.579" y="264.363" width="21.5977" height="49.4425" rx="10" fill="url(#paint11_linear_297_104)"/>
<rect x="285.774" y="170.644" width="21.5977" height="143.162" rx="10" fill="url(#paint12_linear_297_104)"/>
<rect x="285.774" y="223.038" width="21.5977" height="90.7675" rx="10" fill="url(#paint13_linear_297_104)"/>
<ellipse cx="3.15276" cy="7.55741" rx="3.08538" ry="3.68974" fill="url(#paint14_linear_297_104)"/>
<path d="M6.25418 4.64258V15.916H8.00418V12.0645H10.4261C12.637 12.0645 14.1917 10.5488 14.1917 8.3457C14.1917 6.15039 12.6682 4.64258 10.4807 4.64258H6.25418ZM8.00418 6.11914H10.0198C11.5354 6.11914 12.4026 6.93164 12.4026 8.35352C12.4026 9.77539 11.5354 10.5957 10.012 10.5957H8.00418V6.11914ZM18.6917 16.0723C21.0432 16.0723 22.5901 14.4551 22.5901 11.8066C22.5901 9.16602 21.0354 7.54883 18.6917 7.54883C16.3479 7.54883 14.7932 9.16602 14.7932 11.8066C14.7932 14.4551 16.3401 16.0723 18.6917 16.0723ZM18.6917 14.6816C17.3714 14.6816 16.512 13.6348 16.512 11.8066C16.512 9.98633 17.3714 8.93945 18.6917 8.93945C20.012 8.93945 20.8714 9.98633 20.8714 11.8066C20.8714 13.6348 20.0198 14.6816 18.6917 14.6816ZM23.7464 10.0254C23.7464 11.1738 24.4964 11.9473 25.9807 12.3066L27.4495 12.666C28.3089 12.8848 28.6214 13.1738 28.6214 13.6973C28.6214 14.3613 27.9964 14.7832 26.9807 14.7832C25.9495 14.7832 25.3401 14.3457 25.2073 13.5566H23.5354C23.6682 15.0645 24.9573 16.0723 26.9026 16.0723C28.9182 16.0723 30.3167 15.041 30.3167 13.541C30.3167 12.3301 29.6917 11.7051 28.0354 11.3066L26.6526 10.9863C25.8011 10.7754 25.3948 10.4316 25.3948 9.92383C25.3948 9.27539 26.0042 8.83008 26.9182 8.83008C27.8636 8.83008 28.4651 9.29102 28.5432 10.0332H30.1292C30.0745 8.57227 28.7932 7.54883 26.9651 7.54883C25.0432 7.54883 23.7464 8.55664 23.7464 10.0254ZM32.1214 5.75195V7.69727H30.9261V9.0332H32.1214V13.752C32.1214 15.3379 32.7698 15.9707 34.4339 15.9707C34.8089 15.9707 35.1839 15.9395 35.3714 15.8926V14.5566C35.262 14.5801 34.9886 14.5957 34.8167 14.5957C34.1292 14.5957 33.8167 14.2754 33.8167 13.5645V9.0332H35.3792V7.69727H33.8167V5.75195H32.1214ZM36.6214 10.0254C36.6214 11.1738 37.3714 11.9473 38.8557 12.3066L40.3245 12.666C41.1839 12.8848 41.4964 13.1738 41.4964 13.6973C41.4964 14.3613 40.8714 14.7832 39.8557 14.7832C38.8245 14.7832 38.2151 14.3457 38.0823 13.5566H36.4104C36.5432 15.0645 37.8323 16.0723 39.7776 16.0723C41.7932 16.0723 43.1917 15.041 43.1917 13.541C43.1917 12.3301 42.5667 11.7051 40.9104 11.3066L39.5276 10.9863C38.6761 10.7754 38.2698 10.4316 38.2698 9.92383C38.2698 9.27539 38.8792 8.83008 39.7932 8.83008C40.7386 8.83008 41.3401 9.29102 41.4182 10.0332H43.0042C42.9495 8.57227 41.6682 7.54883 39.8401 7.54883C37.9182 7.54883 36.6214 8.55664 36.6214 10.0254Z" fill="white"/>
<ellipse cx="58.0727" cy="7.55741" rx="3.08538" ry="3.68974" fill="url(#paint15_linear_297_104)"/>
<path d="M60.1377 16.1035C62.7315 16.1035 64.4971 14.7363 64.9268 12.4082H63.1846C62.833 13.7676 61.7158 14.5723 60.1455 14.5723C58.0752 14.5723 56.7627 12.9082 56.7627 10.2754C56.7627 7.66602 58.0908 5.98633 60.1377 5.98633C61.669 5.98633 62.8721 6.93164 63.1846 8.37695H64.919C64.6221 6.02539 62.6924 4.45508 60.1377 4.45508C56.9893 4.45508 54.9736 6.70508 54.9736 10.2754C54.9736 13.8691 56.9736 16.1035 60.1377 16.1035ZM69.1768 14.7207C68.2705 14.7207 67.6768 14.252 67.6768 13.5332C67.6768 12.8301 68.2471 12.3848 69.2549 12.3145L71.2783 12.1895V12.8379C71.2783 13.9082 70.3565 14.7207 69.1768 14.7207ZM68.708 16.0566C69.7861 16.0566 70.8252 15.4785 71.3018 14.5645H71.3408V15.916H72.958V10.252C72.958 8.60352 71.6846 7.54883 69.6924 7.54883C67.6611 7.54883 66.3955 8.64258 66.3018 10.127H67.8955C68.044 9.39258 68.6533 8.92383 69.6299 8.92383C70.6611 8.92383 71.2783 9.4707 71.2783 10.3848V11.0176L69.0283 11.1504C67.0752 11.2598 65.9736 12.1426 65.9736 13.5801C65.9736 15.0566 67.0986 16.0566 68.708 16.0566ZM74.5986 15.916H76.2861V10.9941C76.2861 9.83008 76.958 9.10352 78.044 9.10352C78.3721 9.10352 78.669 9.14258 78.8018 9.19727V7.62695C78.6768 7.60352 78.4658 7.56445 78.2236 7.56445C77.2549 7.56445 76.5205 8.13477 76.2471 9.0957H76.208V7.69727H74.5986V15.916ZM83.0205 16.0723C85.3721 16.0723 86.919 14.4551 86.919 11.8066C86.919 9.16602 85.3643 7.54883 83.0205 7.54883C80.6768 7.54883 79.1221 9.16602 79.1221 11.8066C79.1221 14.4551 80.669 16.0723 83.0205 16.0723ZM83.0205 14.6816C81.7002 14.6816 80.8408 13.6348 80.8408 11.8066C80.8408 9.98633 81.7002 8.93945 83.0205 8.93945C84.3408 8.93945 85.2002 9.98633 85.2002 11.8066C85.2002 13.6348 84.3486 14.6816 83.0205 14.6816ZM95.2705 7.69727H93.583V12.4863C93.583 13.7676 92.8486 14.6113 91.6299 14.6113C90.4658 14.6113 89.8721 13.9395 89.8721 12.6895V7.69727H88.1846V13.0176C88.1846 14.9004 89.2783 16.0645 91.0674 16.0645C92.3252 16.0645 93.1611 15.5098 93.6143 14.5254H93.6533V15.916H95.2705V7.69727ZM96.794 10.0254C96.794 11.1738 97.544 11.9473 99.0283 12.3066L100.497 12.666C101.356 12.8848 101.669 13.1738 101.669 13.6973C101.669 14.3613 101.044 14.7832 100.028 14.7832C98.9971 14.7832 98.3877 14.3457 98.2549 13.5566H96.583C96.7158 15.0645 98.0049 16.0723 99.9502 16.0723C101.966 16.0723 103.364 15.041 103.364 13.541C103.364 12.3301 102.739 11.7051 101.083 11.3066L99.7002 10.9863C98.8486 10.7754 98.4424 10.4316 98.4424 9.92383C98.4424 9.27539 99.0518 8.83008 99.9658 8.83008C100.911 8.83008 101.513 9.29102 101.591 10.0332H103.177C103.122 8.57227 101.841 7.54883 100.013 7.54883C98.0908 7.54883 96.794 8.55664 96.794 10.0254ZM108.114 8.9082C109.294 8.9082 110.091 9.79102 110.13 11.0488H106.021C106.106 9.80664 106.935 8.9082 108.114 8.9082ZM110.122 13.502C109.896 14.2207 109.185 14.7051 108.224 14.7051C106.872 14.7051 106.013 13.7598 106.013 12.3301V12.2285H111.817V11.6504C111.817 9.1582 110.396 7.54883 108.114 7.54883C105.794 7.54883 104.31 9.26758 104.31 11.8457C104.31 14.4395 105.771 16.0723 108.185 16.0723C110.067 16.0723 111.489 15.002 111.724 13.502H110.122ZM113.192 15.916H114.88V4.64258H113.192V15.916ZM116.466 10.0254C116.466 11.1738 117.216 11.9473 118.7 12.3066L120.169 12.666C121.028 12.8848 121.341 13.1738 121.341 13.6973C121.341 14.3613 120.716 14.7832 119.7 14.7832C118.669 14.7832 118.06 14.3457 117.927 13.5566H116.255C116.388 15.0645 117.677 16.0723 119.622 16.0723C121.638 16.0723 123.036 15.041 123.036 13.541C123.036 12.3301 122.411 11.7051 120.755 11.3066L119.372 10.9863C118.521 10.7754 118.114 10.4316 118.114 9.92383C118.114 9.27539 118.724 8.83008 119.638 8.83008C120.583 8.83008 121.185 9.29102 121.263 10.0332H122.849C122.794 8.57227 121.513 7.54883 119.685 7.54883C117.763 7.54883 116.466 8.55664 116.466 10.0254Z" fill="white"/>
<defs>
<linearGradient id="paint0_linear_297_104" x1="37.4004" y1="170.644" x2="37.4004" y2="313.805" gradientUnits="userSpaceOnUse">
<stop stop-color="#B09FFF"/>
<stop offset="1" stop-color="#8D79F6"/>
</linearGradient>
<linearGradient id="paint1_linear_297_104" x1="37.4004" y1="223.038" x2="37.4004" y2="313.805" gradientUnits="userSpaceOnUse">
<stop stop-color="#72FFBB"/>
<stop offset="1" stop-color="#3CFE38"/>
</linearGradient>
<linearGradient id="paint2_linear_297_104" x1="166.987" y1="159.574" x2="166.987" y2="313.805" gradientUnits="userSpaceOnUse">
<stop stop-color="#B09FFF"/>
<stop offset="1" stop-color="#8D79F6"/>
</linearGradient>
<linearGradient id="paint3_linear_297_104" x1="166.987" y1="215.658" x2="166.987" y2="313.805" gradientUnits="userSpaceOnUse">
<stop stop-color="#72FFBB"/>
<stop offset="1" stop-color="#3CFE38"/>
</linearGradient>
<linearGradient id="paint4_linear_297_104" x1="80.5962" y1="136.698" x2="80.5962" y2="313.806" gradientUnits="userSpaceOnUse">
<stop stop-color="#B09FFF"/>
<stop offset="1" stop-color="#8D79F6"/>
</linearGradient>
<linearGradient id="paint5_linear_297_104" x1="80.5962" y1="201.637" x2="80.5962" y2="313.805" gradientUnits="userSpaceOnUse">
<stop stop-color="#72FFBB"/>
<stop offset="1" stop-color="#3CFE38"/>
</linearGradient>
<linearGradient id="paint6_linear_297_104" x1="210.182" y1="118.987" x2="210.182" y2="313.805" gradientUnits="userSpaceOnUse">
<stop stop-color="#B09FFF"/>
<stop offset="1" stop-color="#8D79F6"/>
</linearGradient>
<linearGradient id="paint7_linear_297_104" x1="210.182" y1="190.568" x2="210.182" y2="313.806" gradientUnits="userSpaceOnUse">
<stop stop-color="#72FFBB"/>
<stop offset="1" stop-color="#3CFE38"/>
</linearGradient>
<linearGradient id="paint8_linear_297_104" x1="123.792" y1="201.637" x2="123.792" y2="313.805" gradientUnits="userSpaceOnUse">
<stop stop-color="#B09FFF"/>
<stop offset="1" stop-color="#8D79F6"/>
</linearGradient>
<linearGradient id="paint9_linear_297_104" x1="123.792" y1="242.962" x2="123.792" y2="313.805" gradientUnits="userSpaceOnUse">
<stop stop-color="#72FFBB"/>
<stop offset="1" stop-color="#3CFE38"/>
</linearGradient>
<linearGradient id="paint10_linear_297_104" x1="253.377" y1="236.321" x2="253.377" y2="313.805" gradientUnits="userSpaceOnUse">
<stop stop-color="#B09FFF"/>
<stop offset="1" stop-color="#8D79F6"/>
</linearGradient>
<linearGradient id="paint11_linear_297_104" x1="253.377" y1="264.363" x2="253.377" y2="313.805" gradientUnits="userSpaceOnUse">
<stop stop-color="#72FFBB"/>
<stop offset="1" stop-color="#3CFE38"/>
</linearGradient>
<linearGradient id="paint12_linear_297_104" x1="296.573" y1="170.644" x2="296.573" y2="313.805" gradientUnits="userSpaceOnUse">
<stop stop-color="#B09FFF"/>
<stop offset="1" stop-color="#8D79F6"/>
</linearGradient>
<linearGradient id="paint13_linear_297_104" x1="296.573" y1="223.038" x2="296.573" y2="313.805" gradientUnits="userSpaceOnUse">
<stop stop-color="#72FFBB"/>
<stop offset="1" stop-color="#3CFE38"/>
</linearGradient>
<linearGradient id="paint14_linear_297_104" x1="3.15276" y1="3.86768" x2="3.15276" y2="11.2471" gradientUnits="userSpaceOnUse">
<stop stop-color="#72FFBB"/>
<stop offset="1" stop-color="#3CFE38"/>
</linearGradient>
<linearGradient id="paint15_linear_297_104" x1="58.0727" y1="3.86768" x2="58.0727" y2="11.2471" gradientUnits="userSpaceOnUse">
<stop stop-color="#B09FFF"/>
<stop offset="1" stop-color="#8D79F6"/>
</linearGradient>
</defs>
</svg>
