<svg width="239" height="41" viewBox="0 0 239 41" fill="none" xmlns="http://www.w3.org/2000/svg">
<path opacity="0.5" d="M0.661512 8.83203C0.661512 10.2383 1.69862 11.1875 3.22206 11.1875C4.86854 11.1875 5.85292 10.2148 5.85292 8.53906V2.54492H4.54042V8.5332C4.54042 9.5 4.07167 10.0156 3.21034 10.0156C2.47792 10.0156 1.96815 9.53516 1.95057 8.83203H0.661512ZM9.433 10.1035C8.75331 10.1035 8.308 9.75195 8.308 9.21289C8.308 8.68555 8.73573 8.35156 9.49159 8.29883L11.0092 8.20508V8.69141C11.0092 9.49414 10.3178 10.1035 9.433 10.1035ZM9.08143 11.1055C9.89003 11.1055 10.6693 10.6719 11.0267 9.98633H11.056V11H12.2689V6.75195C12.2689 5.51562 11.3139 4.72461 9.81972 4.72461C8.29628 4.72461 7.34706 5.54492 7.27675 6.6582H8.47206C8.58339 6.10742 9.04042 5.75586 9.77284 5.75586C10.5463 5.75586 11.0092 6.16602 11.0092 6.85156V7.32617L9.32167 7.42578C7.85682 7.50781 7.03065 8.16992 7.03065 9.24805C7.03065 10.3555 7.8744 11.1055 9.08143 11.1055ZM13.4994 11H14.765V7.4082C14.765 6.45312 15.3392 5.82031 16.2299 5.82031C17.1088 5.82031 17.5424 6.33008 17.5424 7.25586V11H18.8139V7.00977C18.8139 5.59766 18.0346 4.73047 16.6752 4.73047C15.726 4.73047 15.0697 5.16406 14.7357 5.86719H14.7064V4.83594H13.4994V11Z" fill="black"/>
<path opacity="0.5" d="M153.296 11V2.54492H151.773L149.042 9.21875H148.995L146.259 2.54492H144.741V11H145.937V4.77734H145.978L148.532 10.9355H149.505L152.054 4.77734H152.095V11H153.296ZM156.694 10.1035C156.015 10.1035 155.569 9.75195 155.569 9.21289C155.569 8.68555 155.997 8.35156 156.753 8.29883L158.271 8.20508V8.69141C158.271 9.49414 157.579 10.1035 156.694 10.1035ZM156.343 11.1055C157.152 11.1055 157.931 10.6719 158.288 9.98633H158.318V11H159.53V6.75195C159.53 5.51562 158.575 4.72461 157.081 4.72461C155.558 4.72461 154.609 5.54492 154.538 6.6582H155.734C155.845 6.10742 156.302 5.75586 157.034 5.75586C157.808 5.75586 158.271 6.16602 158.271 6.85156V7.32617L156.583 7.42578C155.118 7.50781 154.292 8.16992 154.292 9.24805C154.292 10.3555 155.136 11.1055 156.343 11.1055ZM161.37 13.2969C162.653 13.2969 163.257 12.8164 163.784 11.3223L166.099 4.83594H164.763L163.198 9.85156H163.181L161.616 4.83594H160.245L162.472 11.0059C162.472 11.0117 162.361 11.375 162.361 11.3867C162.167 12.0195 161.857 12.2656 161.265 12.2656C161.159 12.2656 160.948 12.2656 160.855 12.2422V13.2676C160.948 13.2852 161.271 13.2969 161.37 13.2969Z" fill="black"/>
<path opacity="0.5" d="M39.057 11V7.46094H42.6898V6.35352H39.057V3.67578H43.0238V2.54492H37.7445V11H39.057ZM46.3812 5.74414C47.266 5.74414 47.8637 6.40625 47.893 7.34961H44.8109C44.8754 6.41797 45.4965 5.74414 46.3812 5.74414ZM47.8871 9.18945C47.7172 9.72852 47.184 10.0918 46.4633 10.0918C45.4496 10.0918 44.8051 9.38281 44.8051 8.31055V8.23438H49.1586V7.80078C49.1586 5.93164 48.0922 4.72461 46.3812 4.72461C44.641 4.72461 43.5277 6.01367 43.5277 7.94727C43.5277 9.89258 44.6234 11.1172 46.434 11.1172C47.8461 11.1172 48.9125 10.3145 49.0883 9.18945H47.8871ZM55.3695 4.83594H54.0453L52.4984 9.76367H52.475L50.9281 4.83594H49.5805L51.8012 11H53.1605L55.3695 4.83594Z" fill="black"/>
<path opacity="0.5" d="M81.7854 11V2.54492H80.262L77.5315 9.21875H77.4846L74.7483 2.54492H73.2307V11H74.426V4.77734H74.4671L77.0217 10.9355H77.9944L80.5432 4.77734H80.5842V11H81.7854ZM85.1839 10.1035C84.5042 10.1035 84.0589 9.75195 84.0589 9.21289C84.0589 8.68555 84.4866 8.35156 85.2425 8.29883L86.76 8.20508V8.69141C86.76 9.49414 86.0686 10.1035 85.1839 10.1035ZM84.8323 11.1055C85.6409 11.1055 86.4202 10.6719 86.7776 9.98633H86.8069V11H88.0198V6.75195C88.0198 5.51562 87.0647 4.72461 85.5706 4.72461C84.0471 4.72461 83.0979 5.54492 83.0276 6.6582H84.2229C84.3342 6.10742 84.7913 5.75586 85.5237 5.75586C86.2971 5.75586 86.76 6.16602 86.76 6.85156V7.32617L85.0725 7.42578C83.6077 7.50781 82.7815 8.16992 82.7815 9.24805C82.7815 10.3555 83.6253 11.1055 84.8323 11.1055ZM89.2503 11H90.5159V7.30859C90.5159 6.43555 91.0198 5.89062 91.8342 5.89062C92.0803 5.89062 92.303 5.91992 92.4026 5.96094V4.7832C92.3089 4.76562 92.1507 4.73633 91.969 4.73633C91.2424 4.73633 90.6917 5.16406 90.4866 5.88477H90.4573V4.83594H89.2503V11Z" fill="black"/>
<path opacity="0.5" d="M181.698 8.83203C181.698 10.2383 182.735 11.1875 184.259 11.1875C185.905 11.1875 186.889 10.2148 186.889 8.53906V2.54492H185.577V8.5332C185.577 9.5 185.108 10.0156 184.247 10.0156C183.514 10.0156 183.005 9.53516 182.987 8.83203H181.698ZM193.598 4.83594H192.333V8.42773C192.333 9.38867 191.782 10.0215 190.868 10.0215C189.995 10.0215 189.55 9.51758 189.55 8.58008V4.83594H188.284V8.82617C188.284 10.2383 189.104 11.1113 190.446 11.1113C191.389 11.1113 192.016 10.6953 192.356 9.95703H192.386V11H193.598V4.83594ZM194.852 11H196.118V7.4082C196.118 6.45312 196.692 5.82031 197.583 5.82031C198.462 5.82031 198.895 6.33008 198.895 7.25586V11H200.167V7.00977C200.167 5.59766 199.388 4.73047 198.028 4.73047C197.079 4.73047 196.423 5.16406 196.089 5.86719H196.059V4.83594H194.852V11Z" fill="black"/>
<path opacity="0.5" d="M115.81 11H117.199L114.146 2.54492H112.728L109.675 11H111.04L111.814 8.71484H115.037L115.81 11ZM113.408 3.95117H113.443L114.703 7.66016H112.148L113.408 3.95117ZM121.189 4.73633C120.298 4.73633 119.589 5.1875 119.226 5.89648H119.203V4.83594H117.978V13.0391H119.244V9.98633H119.273C119.624 10.6719 120.328 11.1055 121.212 11.1055C122.759 11.1055 123.785 9.86914 123.785 7.91797C123.785 5.9668 122.753 4.73633 121.189 4.73633ZM120.855 10.0332C119.882 10.0332 119.238 9.20117 119.238 7.91797C119.238 6.64648 119.888 5.80273 120.855 5.80273C121.857 5.80273 122.484 6.62891 122.484 7.91797C122.484 9.21289 121.857 10.0332 120.855 10.0332ZM124.763 11H126.029V7.30859C126.029 6.43555 126.533 5.89062 127.347 5.89062C127.593 5.89062 127.816 5.91992 127.915 5.96094V4.7832C127.822 4.76562 127.663 4.73633 127.482 4.73633C126.755 4.73633 126.204 5.16406 125.999 5.88477H125.97V4.83594H124.763V11Z" fill="black"/>
<path opacity="0.5" d="M216.911 8.83203C216.911 10.2383 217.948 11.1875 219.471 11.1875C221.118 11.1875 222.102 10.2148 222.102 8.53906V2.54492H220.79V8.5332C220.79 9.5 220.321 10.0156 219.46 10.0156C218.727 10.0156 218.217 9.53516 218.2 8.83203H216.911ZM228.811 4.83594H227.546V8.42773C227.546 9.38867 226.995 10.0215 226.081 10.0215C225.208 10.0215 224.762 9.51758 224.762 8.58008V4.83594H223.497V8.82617C223.497 10.2383 224.317 11.1113 225.659 11.1113C226.602 11.1113 227.229 10.6953 227.569 9.95703H227.598V11H228.811V4.83594ZM230.112 11H231.378V2.54492H230.112V11ZM233.288 13.2969C234.571 13.2969 235.175 12.8164 235.702 11.3223L238.016 4.83594H236.68L235.116 9.85156H235.098L233.534 4.83594H232.163L234.389 11.0059C234.389 11.0117 234.278 11.375 234.278 11.3867C234.085 12.0195 233.774 12.2656 233.182 12.2656C233.077 12.2656 232.866 12.2656 232.772 12.2422V13.2676C232.866 13.2852 233.188 13.2969 233.288 13.2969Z" fill="black"/>
</svg>
